# Blender v2.79 (sub 0) OBJ File: 'stairs_inner_corner.blend'
# www.blender.org
mtllib stairs_inner_corner.mtl
o Cube
v 1.000000 -1.000000 -1.000000
v 1.000000 -1.000000 1.000000
v -1.000000 -1.000000 1.000000
v -1.000000 -1.000000 -1.000000
v 1.000000 -0.000000 -1.000000
v 1.000000 -0.000000 0.000000
v -0.000000 -0.000000 -1.000000
v -0.000000 -0.000000 0.000000
v 1.000000 1.000000 0.000000
v 1.000000 1.000000 1.000000
v -0.000000 1.000000 -1.000000
v -1.000000 1.000000 -1.000000
v -1.000000 1.000000 1.000000
v -0.000000 1.000000 0.000000
v 1.000000 -1.000000 -1.000000
v 1.000000 -1.000000 -1.000000
v 1.000000 -1.000000 1.000000
v 1.000000 -1.000000 1.000000
v -1.000000 -1.000000 -1.000000
v -1.000000 -1.000000 -1.000000
v 1.000000 -0.000000 -1.000000
v 1.000000 -0.000000 -1.000000
v -1.000000 -1.000000 1.000000
v -1.000000 -1.000000 1.000000
v 1.000000 -0.000000 0.000000
v 1.000000 -0.000000 0.000000
v -0.000000 -0.000000 -1.000000
v -0.000000 -0.000000 -1.000000
v 1.000000 1.000000 0.000000
v 1.000000 1.000000 0.000000
v -0.000000 -0.000000 0.000000
v -0.000000 -0.000000 0.000000
v -0.000000 1.000000 0.000000
v -0.000000 1.000000 0.000000
v 1.000000 1.000000 1.000000
v 1.000000 1.000000 1.000000
v -0.000000 1.000000 -1.000000
v -0.000000 1.000000 -1.000000
v -1.000000 1.000000 -1.000000
v -1.000000 1.000000 -1.000000
v -1.000000 1.000000 1.000000
v -1.000000 1.000000 1.000000
vt 1.000000 0.000000
vt 0.000000 1.000000
vt 1.000000 1.000000
vt 0.000000 0.000000
vt 0.500000 0.500000
vt 0.000000 1.000000
vt 0.000000 0.000000
vt 1.000000 1.000000
vt 1.000000 0.000000
vt 0.000000 0.000000
vt 1.000000 1.000000
vt 0.000000 1.000000
vt 0.000000 1.000000
vt 0.500000 0.500000
vt 0.500000 1.000000
vt 0.500000 0.500000
vt 1.000000 1.000000
vt 1.000000 0.500000
vt 0.500000 0.500000
vt 0.000000 0.000000
vt 1.000000 0.000000
vt 0.000000 0.000000
vt 0.500000 0.500000
vt 1.000000 0.000000
vt 1.000000 0.500000
vt 0.500000 1.000000
vt 0.500000 0.500000
vt 0.000000 0.000000
vt 1.000000 0.000000
vt 0.500000 1.000000
vt 1.000000 0.500000
vt 0.000000 1.000000
vt 1.000000 0.000000
vt 0.000000 0.500000
vt 0.500000 1.000000
vt 1.000000 0.500000
vt 0.500000 1.000000
vt 0.000000 1.000000
vt 0.000000 1.000000
vt 1.000000 0.500000
vt 0.500000 1.000000
vt 1.000000 1.000000
vn 0.0000 -1.0000 0.0000
vn 1.0000 0.0000 0.0000
vn -1.0000 -0.0000 -0.0000
vn -0.0000 0.0000 1.0000
vn 0.0000 1.0000 0.0000
vn 0.0000 0.0000 -1.0000
usemtl Material
s off
f 17/1/1 19/2/1 15/3/1
f 18/4/2 25/5/2 35/6/2
f 24/7/3 40/8/3 20/9/3
f 3/10/4 36/11/4 41/12/4
f 27/13/5 26/14/5 22/15/5
f 32/16/6 30/17/6 6/18/6
f 34/19/5 13/20/5 10/21/5
f 4/22/6 28/23/6 1/24/6
f 7/25/2 14/26/2 8/27/2
f 17/1/1 23/28/1 19/2/1
f 18/4/2 16/29/2 25/5/2
f 25/5/2 29/30/2 35/6/2
f 16/29/2 21/31/2 25/5/2
f 24/7/3 42/32/3 40/8/3
f 3/10/4 2/33/4 36/11/4
f 27/13/5 31/34/5 26/14/5
f 32/16/6 33/35/6 30/17/6
f 10/21/5 9/36/5 34/19/5
f 34/19/5 37/37/5 39/38/5
f 39/38/5 13/20/5 34/19/5
f 4/22/6 12/39/6 28/23/6
f 28/23/6 5/40/6 1/24/6
f 12/39/6 38/41/6 28/23/6
f 7/25/2 11/42/2 14/26/2
