# Blender v2.79 (sub 0) OBJ File: 'stairs_corner.blend'
# www.blender.org
mtllib stairs_corner.mtl
o Cube
v 1.000000 -1.000000 -1.000000
v 1.000000 -1.000000 1.000000
v -1.000000 -1.000000 1.000000
v -1.000000 -1.000000 -1.000000
v 1.000000 0.000000 -1.000000
v 1.000000 0.000000 1.000000
v -1.000000 0.000000 -1.000000
v 0.000000 0.000000 1.000000
v -1.000000 0.000000 0.000000
v 0.000000 0.000000 0.000000
v 0.000000 1.000000 1.000000
v -1.000000 1.000000 1.000000
v -1.000000 1.000000 0.000000
v 0.000000 1.000000 0.000000
v 1.000000 -1.000000 -1.000000
v 1.000000 -1.000000 -1.000000
v 1.000000 -1.000000 1.000000
v 1.000000 -1.000000 1.000000
v -1.000000 -1.000000 -1.000000
v -1.000000 -1.000000 -1.000000
v 1.000000 0.000000 -1.000000
v 1.000000 0.000000 -1.000000
v -1.000000 -1.000000 1.000000
v -1.000000 -1.000000 1.000000
v 1.000000 0.000000 1.000000
v 1.000000 0.000000 1.000000
v -1.000000 0.000000 -1.000000
v -1.000000 0.000000 -1.000000
v -1.000000 0.000000 0.000000
v -1.000000 0.000000 0.000000
v 0.000000 0.000000 1.000000
v 0.000000 0.000000 1.000000
v 0.000000 0.000000 0.000000
v 0.000000 0.000000 0.000000
v 0.000000 1.000000 1.000000
v 0.000000 1.000000 1.000000
v -1.000000 1.000000 1.000000
v -1.000000 1.000000 1.000000
v -1.000000 1.000000 0.000000
v -1.000000 1.000000 0.000000
v 0.000000 1.000000 0.000000
v 0.000000 1.000000 0.000000
vt 0.500000 0.000000
vt 0.000000 0.500000
vt 0.500000 0.500000
vt 1.000000 0.500000
vt 0.500000 1.000000
vt 0.500000 0.500000
vt 1.000000 0.500000
vt 0.500000 0.000000
vt 1.000000 0.000000
vt 0.000000 0.000000
vt 0.500000 0.500000
vt 1.000000 0.000000
vt 0.500000 0.500000
vt 0.000000 1.000000
vt 0.500000 1.000000
vt 1.000000 1.000000
vt 0.500000 0.500000
vt 1.000000 0.000000
vt 0.500000 0.500000
vt 1.000000 0.000000
vt 1.000000 0.500000
vt 0.000000 1.000000
vt 0.500000 0.500000
vt 0.500000 1.000000
vt 0.500000 0.500000
vt 1.000000 1.000000
vt 1.000000 0.500000
vt 0.000000 0.000000
vt 1.000000 1.000000
vt 0.500000 0.500000
vt 0.000000 1.000000
vt 1.000000 0.500000
vt 0.500000 1.000000
vt 0.000000 0.500000
vt 0.000000 1.000000
vt 0.500000 0.000000
vt 0.000000 0.500000
vt 0.500000 1.000000
vt 0.000000 1.000000
vt 0.000000 0.000000
vt 0.000000 0.500000
vt 0.500000 1.000000
vn 0.0000 -1.0000 0.0000
vn 1.0000 0.0000 0.0000
vn -1.0000 -0.0000 -0.0000
vn 0.0000 0.0000 -1.0000
vn 0.0000 1.0000 0.0000
vn -0.0000 -0.0000 1.0000
usemtl Material
s off
f 17/1/1 19/2/1 15/3/1
f 33/4/2 36/5/2 32/6/2
f 21/7/2 18/8/2 16/9/2
f 24/10/3 29/11/3 20/12/3
f 1/13/4 28/14/4 22/15/4
f 5/16/5 34/17/5 26/18/5
f 8/19/6 2/20/6 6/21/6
f 40/22/5 11/23/5 42/24/5
f 9/25/4 14/26/4 10/27/4
f 17/1/1 23/28/1 19/2/1
f 33/4/2 41/29/2 36/5/2
f 21/7/2 25/30/2 18/8/2
f 24/10/3 38/31/3 29/11/3
f 29/11/3 27/32/3 20/12/3
f 38/31/3 39/33/3 29/11/3
f 1/13/4 4/34/4 28/14/4
f 5/16/5 7/35/5 34/17/5
f 34/17/5 31/36/5 26/18/5
f 7/35/5 30/37/5 34/17/5
f 8/19/6 35/38/6 37/39/6
f 3/40/6 2/20/6 8/19/6
f 8/19/6 37/39/6 3/40/6
f 40/22/5 12/41/5 11/23/5
f 9/25/4 13/42/4 14/26/4
