# Blender v2.79 (sub 0) OBJ File: 'stairs.blend'
# www.blender.org
mtllib stairs.mtl
o Cube
v 1.000000 -1.000000 -1.000000
v 1.000000 0.000000 -1.000000
v -0.000000 0.000000 -1.000000
v 1.000000 -1.000000 1.000000
v 1.000000 0.000000 1.000000
v -0.000000 0.000000 -1.000000
v -1.000000 -1.000000 -1.000000
v -0.000000 1.000000 -1.000000
v -1.000000 1.000000 -1.000000
v 1.000000 -1.000000 -1.000000
v 1.000000 0.000000 -1.000000
v 1.000000 -1.000000 1.000000
v 1.000000 0.000000 1.000000
v -0.000000 0.000000 1.000000
v -0.000000 0.000000 -1.000000
v -0.000000 0.000000 1.000000
v -1.000000 -1.000000 -1.000000
v -1.000000 -1.000000 1.000000
v -0.000000 1.000000 -1.000000
v -0.000000 1.000000 1.000000
v -1.000000 1.000000 -1.000000
v -1.000000 1.000000 1.000000
v 1.000000 0.000000 -1.000000
v -0.000000 0.000000 -1.000000
v 1.000000 0.000000 1.000000
v -0.000000 0.000000 1.000000
v -0.000000 0.000000 -1.000000
v -0.000000 0.000000 1.000000
v 1.000000 -1.000000 -1.000000
v 1.000000 0.000000 -1.000000
v 1.000000 -1.000000 -1.000000
v 1.000000 -1.000000 1.000000
v -0.000000 0.000000 1.000000
v -1.000000 -1.000000 1.000000
v -1.000000 -1.000000 1.000000
v -1.000000 -1.000000 -1.000000
v -0.000000 1.000000 1.000000
v -0.000000 1.000000 1.000000
v -1.000000 1.000000 1.000000
v -1.000000 1.000000 1.000000
v -0.000000 1.000000 -1.000000
v -1.000000 1.000000 -1.000000
vt 1.000000 0.498215
vt -0.001201 0.002290
vt 1.000000 0.002290
vt 0.005859 0.000168
vt 0.505063 0.499999
vt 1.001844 0.000168
vt 1.003219 0.002121
vt 1.001266 0.498046
vt 0.504484 0.498046
vt 1.000000 0.998215
vt -0.001844 -0.003906
vt -0.001844 0.998215
vt 0.995984 0.498215
vt 0.003971 0.998215
vt 0.002018 0.498215
vt 0.997938 0.000505
vt -0.001888 0.996431
vt 0.999891 0.996431
vt -0.001266 0.998215
vt 0.503797 0.001953
vt 0.503797 0.998215
vt 1.001844 0.500000
vt 1.000000 0.998047
vt -0.001375 0.998215
vt -0.001201 0.496261
vt 0.999891 0.499999
vt 0.000000 1.000000
vt 0.505063 0.499999
vt 0.505063 1.000000
vt 0.502531 0.499999
vt 0.502531 0.998047
vt -0.000578 0.998047
vt -0.000578 0.002121
vt 1.000000 0.000000
vt 1.001844 0.998215
vt 0.000065 0.000505
vt -0.001266 0.000000
vt -0.000109 0.500168
vt 0.501844 0.500168
vt 0.999891 0.998047
vn 1.0000 0.0000 0.0000
vn 0.0000 0.0000 -1.0000
vn 0.0000 0.0000 1.0000
vn 0.0000 -1.0000 0.0000
vn -1.0000 0.0000 0.0000
vn 0.0000 1.0000 0.0000
vn 0.0000 0.7071 0.7071
usemtl Material
s 1
f 30/1/1 4/2/1 29/3/1
f 7/4/2 6/5/2 1/6/2
f 32/7/3 13/8/3 14/9/3
f 10/10/4 35/11/4 36/12/4
f 15/13/1 38/14/1 16/15/1
f 17/16/5 40/17/5 21/18/5
f 42/19/6 20/20/6 41/21/6
f 28/22/7 25/23/6 23/24/6
f 30/1/1 5/25/1 4/2/1
f 2/26/2 1/6/2 6/5/2
f 7/4/2 9/27/2 6/5/2
f 6/5/2 3/28/3 2/26/2
f 9/27/2 8/29/2 6/5/2
f 14/9/3 33/30/3 37/31/3
f 37/31/3 39/32/3 14/9/3
f 34/33/3 32/7/3 14/9/3
f 14/9/3 39/32/3 34/33/3
f 10/10/4 12/34/4 35/11/4
f 15/13/1 19/35/1 38/14/1
f 17/16/5 18/36/5 40/17/5
f 42/19/6 22/37/6 20/20/6
f 24/38/7 27/39/3 28/22/7
f 28/22/7 26/40/3 25/23/6
f 23/24/6 24/38/7 28/22/7
l 31 11
